<svg data-v-fde0c5aa="" xmlns="http://www.w3.org/2000/svg" viewBox="0 0 300 300" class="icon"><!----><defs data-v-fde0c5aa=""><!----></defs><rect data-v-fde0c5aa="" fill="#00acff" x="0" y="0" width="300px" height="300px" class="logo-background-square"></rect><!----><defs data-v-fde0c5aa=""><!----></defs><g data-v-fde0c5aa="" id="cc513b4d-b4cf-4b48-8dd8-dfc05574dd3a" fill="#010033" stroke="none" transform="matrix(2.44610248442463,0,0,2.44610248442463,27.69609582538348,27.6960981581686)"><switch><g><path d="M88.49 40.4c0-19.54-15.84-35.37-35.37-35.37h-6.24c-19.53 0-35.37 15.83-35.37 35.37l-.86 46.18v.28c0 4.479 3.52 8.109 7.87 8.109 4.34 0 7.87-3.63 7.87-8.109 0-4.49 3.52-8.12 7.87-8.12s7.87 3.63 7.87 8.12c0 4.479 3.52 8.109 7.87 8.109s7.87-3.63 7.87-8.109c0-4.49 3.52-8.12 7.87-8.12s7.87 3.63 7.87 8.12c0 4.479 3.52 8.109 7.87 8.109s7.869-3.63 7.869-8.109v-.28L88.49 40.4zM35.74 55.06c-6.02 0-10.89-6.72-10.89-15.01s4.87-15.01 10.89-15.01c6.01 0 10.88 6.72 10.88 15.01s-4.87 15.01-10.88 15.01zm28.58 0c-6.011 0-10.891-6.72-10.891-15.01s4.88-15.01 10.891-15.01c6.01 0 10.89 6.72 10.89 15.01s-4.88 15.01-10.89 15.01z"></path><path d="M37.878 33.247c0 3.364-2.32 6.093-5.182 6.093-2.863 0-5.183-2.729-5.183-6.093s2.32-6.091 5.183-6.091c2.862 0 5.182 2.727 5.182 6.091zM61.304 27.156c-2.862 0-5.183 2.728-5.183 6.091 0 3.364 2.32 6.093 5.183 6.093s5.183-2.729 5.183-6.093c-.001-3.364-2.321-6.091-5.183-6.091z"></path></g></switch></g><!----></svg>